<svg width="38" height="38" viewBox="0 0 64 46" fill="none" xmlns="http://www.w3.org/2000/svg">
<path d="M59.9999 0.944092H3.39995C1.69995 0.944092 0.199951 2.14409 0.199951 3.64409V30.9441C0.199951 32.4441 1.59995 33.6441 3.39995 33.6441H11.5999C13.3999 33.6441 14.5999 34.8441 14.2999 36.3441L13 44.4441C12.8 45.9441 13.5999 46.2441 14.7999 45.2441L25.9999 35.6441C27.1999 34.5441 29.6999 33.7441 31.3999 33.7441H59.9999C61.7999 33.7441 63.2 32.5441 63.2 31.0441V3.64409C63.2 2.14409 61.6999 0.944092 59.9999 0.944092ZM26.8999 23.7441L24.8999 25.7441L24.7 25.8441L24.5 25.6441C22.2999 23.4441 21.0999 20.5441 21.0999 17.5441C21.0999 14.4441 22.2999 11.5441 24.5 9.44409C26.7 7.24409 29.5 6.04409 32.6 6.04409C32.8 6.04409 33 6.04409 33.2 6.04409V3.44409V2.84409L33.6 3.24409L37.8999 7.54409L38.1 7.74409L37.8999 7.94409L33.6 12.2441L33.2 12.6441V12.0441V9.24409C33 9.24409 32.8 9.24409 32.6 9.24409C30.4 9.24409 28.2999 10.0441 26.7999 11.6441C23.5999 14.8441 23.5999 20.0441 26.7999 23.2441L26.9999 23.4441L26.8999 23.7441ZM40.7999 25.6441C38.7 27.7441 35.8999 28.9441 32.8999 28.9441C32.5999 28.9441 32.4 28.9441 32.1 28.9441V31.5441V32.1441L31.7 31.7441L27.3999 27.4441L27.2 27.2441L27.3999 27.0441L31.7 22.7441L32.1 22.3441V22.9441V25.7441C32.3 25.7441 32.5 25.7441 32.7 25.7441C34.9 25.7441 36.9999 24.9441 38.4999 23.3441C41.6999 20.1441 41.6999 14.9441 38.4999 11.7441L38.2999 11.5441L38.4999 11.3441L40.4999 9.34409L40.7 9.14409L40.8999 9.34409C45.2999 13.8441 45.2999 21.1441 40.7999 25.6441Z" fill="white"/>
</svg>
