<svg width="46" height="46" viewBox="0 0 46 46" fill="none" xmlns="http://www.w3.org/2000/svg">
<circle cx="23.0687" cy="23.0069" r="21.9154" fill="white" stroke="white"/>
<path d="M23.0686 26.5765C25.4249 26.5765 27.3128 24.6632 27.3128 22.293L27.327 13.7261C27.327 11.3559 25.4249 9.44263 23.0686 9.44263C20.7123 9.44263 18.8102 11.3559 18.8102 13.7261V22.293C18.8102 24.6632 20.7123 26.5765 23.0686 26.5765ZM30.5917 22.293C30.5917 26.5765 26.9863 29.5749 23.0686 29.5749C19.1508 29.5749 15.5454 26.5765 15.5454 22.293H13.1323C13.1323 27.1619 16.9933 31.1884 21.6491 31.888V36.5713H24.488V31.888C29.1439 31.2027 33.0048 27.1762 33.0048 22.293H30.5917Z" fill="#0D003A"/>
</svg>
