<svg width="20" height="20" viewBox="0 0 21 27" fill="none" xmlns="http://www.w3.org/2000/svg">
<path d="M10.0686 18.0765C12.4249 18.0765 14.3128 16.1633 14.3128 13.7931L14.327 5.22613C14.327 2.85594 12.4249 0.942657 10.0686 0.942657C7.71226 0.942657 5.81018 2.85594 5.81018 5.22613V13.7931C5.81018 16.1633 7.71226 18.0765 10.0686 18.0765ZM17.5917 13.7931C17.5917 18.0765 13.9863 21.075 10.0686 21.075C6.15085 21.075 2.54541 18.0765 2.54541 13.7931H0.132324C0.132324 18.6619 3.99326 22.6884 8.6491 23.388V28.0713H11.488V23.388C16.1439 22.7027 20.0048 18.6762 20.0048 13.7931H17.5917Z" fill="#0D003A"/>
</svg>
