<svg width="41" height="41" viewBox="0 0 41 41" fill="none" xmlns="http://www.w3.org/2000/svg">
<circle cx="20.3945" cy="20.4223" r="19.5" fill="white" stroke="white"/>
<path d="M20.3946 8.81584V4.46341L14.5913 10.2666L20.3946 16.0699V11.7175C25.1967 11.7175 29.0994 15.6201 29.0994 20.4223C29.0994 21.8876 28.7367 23.2804 28.0838 24.4846L30.202 26.6027C31.3337 24.8183 32.001 22.7001 32.001 20.4223C32.001 14.0097 26.8071 8.81584 20.3946 8.81584ZM20.3946 29.1272C15.5924 29.1272 11.6897 25.2245 11.6897 20.4223C11.6897 18.957 12.0524 17.5642 12.7053 16.36L10.5871 14.2419C9.45546 16.0264 8.78809 18.1445 8.78809 20.4223C8.78809 26.8349 13.982 32.0288 20.3946 32.0288V36.3812L26.1978 30.578L20.3946 24.7747V29.1272Z" fill="#0D003A"/>
</svg>
