<svg width="46" height="46" viewBox="0 0 46 46" fill="none" xmlns="http://www.w3.org/2000/svg">
<circle cx="22.5591" cy="22.9223" r="22.5" fill="white"/>
<path d="M14.1429 32.7988C14.1429 34.3508 15.4053 35.6206 16.9482 35.6206H28.1695C29.7124 35.6206 30.9748 34.3508 30.9748 32.7988V15.8677H14.1429V32.7988ZM17.5934 22.753L19.5712 20.7636L22.5589 23.7548L25.5325 20.7636L27.5102 22.753L24.5366 25.7442L27.5102 28.7353L25.5325 30.7247L22.5589 27.7336L19.5852 30.7247L17.6075 28.7353L20.5811 25.7442L17.5934 22.753ZM27.4682 11.635L26.0655 10.224H19.0522L17.6495 11.635H12.7402V14.4568H32.3775V11.635H27.4682Z" fill="#0D003A"/>
</svg>
